<svg width="326" height="60" viewBox="0 0 326 60" fill="none" xmlns="http://www.w3.org/2000/svg">
<rect x="6.5" y="5.5" width="319" height="54" fill="black" stroke="#3A3939"/>
<rect x="0.5" y="0.5" width="319" height="54" fill="#1C1C1E" stroke="#3A3939"/>
<path opacity="0.9" d="M83.84 30.516H83.924H84.12C84.2227 30.516 84.33 30.516 84.442 30.516C84.554 30.516 84.6567 30.516 84.75 30.516C84.8527 30.516 84.9507 30.516 85.044 30.516C85.1467 30.516 85.2353 30.516 85.31 30.516C86.2153 30.4227 86.9527 30.152 87.522 29.704C88.1007 29.256 88.488 28.5607 88.684 27.618C88.46 27.618 87.9513 27.618 87.158 27.618C86.3647 27.618 85.6413 27.618 84.988 27.618C84.8387 27.618 84.7033 27.618 84.582 27.618C84.4607 27.618 84.358 27.618 84.274 27.618H84.078H84.008V26.162C84.008 26.0967 84.0127 26.0453 84.022 26.008C84.0967 25.4947 84.2227 25.0653 84.4 24.72C84.5867 24.3653 84.8107 24.076 85.072 23.852C85.3333 23.628 85.6693 23.4553 86.08 23.334C86.4907 23.2033 86.9247 23.1193 87.382 23.082C87.8487 23.0353 88.4133 23.012 89.076 23.012L89.062 24.58C88.278 24.552 87.6433 24.594 87.158 24.706C86.682 24.818 86.332 24.9813 86.108 25.196C85.8933 25.4107 85.7393 25.6953 85.646 26.05C85.7673 26.0593 85.996 26.064 86.332 26.064C86.5 26.064 86.78 26.064 87.172 26.064C87.956 26.064 88.6793 26.064 89.342 26.064C89.4913 26.064 89.622 26.064 89.734 26.064C89.8553 26.064 89.9627 26.064 90.056 26.064H90.252H90.322L90.308 27.632C90.2893 28.0053 90.2287 28.3693 90.126 28.724C90.0327 29.0787 89.8833 29.4333 89.678 29.788C89.4727 30.1427 89.2253 30.4647 88.936 30.754C88.6467 31.034 88.278 31.2813 87.83 31.496C87.382 31.7013 86.8827 31.846 86.332 31.93C86.1453 31.958 85.9213 31.9767 85.66 31.986H85.576H85.38C85.2773 31.986 85.17 31.986 85.058 31.986C84.946 31.986 84.8433 31.986 84.75 31.986C84.6567 31.986 84.554 31.986 84.442 31.986C84.33 31.986 84.2227 31.986 84.12 31.986H83.924H83.84V30.516ZM95.3397 22.984V23.11V23.446V24.482V25.518V25.854V25.98V26.05V26.218V26.722V27.24V27.408V27.548C95.3397 27.6133 95.3397 27.688 95.3397 27.772C95.349 28.6213 95.3537 30.04 95.3537 32.028L94.6117 31.37L93.7157 30.656L93.7017 27.478V27.408C93.7017 26.2787 93.7017 25.6487 93.7017 25.518V24.482C93.711 24.398 93.711 24.314 93.7017 24.23C93.7017 24.146 93.7017 24.062 93.7017 23.978C93.7017 23.894 93.6923 23.8147 93.6737 23.74C93.6643 23.656 93.6503 23.5813 93.6317 23.516C93.613 23.4413 93.5803 23.376 93.5337 23.32C93.487 23.2547 93.431 23.1987 93.3657 23.152C93.3097 23.1053 93.235 23.068 93.1417 23.04C93.0483 23.0027 92.9457 22.984 92.8337 22.984H93.7017H95.3397ZM101.985 26.05H102.027H102.125C102.171 26.05 102.223 26.05 102.279 26.05C102.344 26.05 102.414 26.05 102.489 26.05C102.825 26.0593 103.193 26.064 103.595 26.064C103.996 26.064 104.365 26.064 104.701 26.064C104.785 26.064 104.855 26.064 104.911 26.064C104.976 26.064 105.027 26.064 105.065 26.064H105.177H105.205V27.632H105.191C105.172 28.0053 105.111 28.3693 105.009 28.724C104.915 29.0787 104.766 29.4333 104.561 29.788C104.355 30.1427 104.108 30.4647 103.819 30.754C103.529 31.034 103.161 31.2813 102.713 31.496C102.265 31.7013 101.765 31.846 101.215 31.93C101.009 31.9673 100.757 31.986 100.459 31.986H98.8488V31.846C98.8488 29.578 98.8488 28.3133 98.8488 28.052V25.98C98.8488 25.868 98.8488 25.686 98.8488 25.434C98.8488 25.1727 98.8488 24.9767 98.8488 24.846C98.8488 24.706 98.8395 24.5287 98.8208 24.314C98.8115 24.09 98.7881 23.922 98.7508 23.81C98.7228 23.6887 98.6761 23.5627 98.6108 23.432C98.5548 23.292 98.4755 23.1893 98.3728 23.124C98.2795 23.0587 98.1675 23.0167 98.0368 22.998L98.8488 22.984H100.459C100.776 22.984 101.341 22.984 102.153 22.984C102.862 22.9933 103.515 22.998 104.113 22.998C104.225 22.998 104.337 22.998 104.449 22.998C104.561 22.998 104.663 22.998 104.757 22.998H104.939H104.995V24.594H104.939H104.757C104.654 24.594 104.547 24.594 104.435 24.594C104.332 24.594 104.225 24.594 104.113 24.594C103.515 24.594 102.862 24.594 102.153 24.594C101.462 24.594 100.897 24.594 100.459 24.594V25.98V28.052V28.724V28.99V29.116V29.452V30.488C101.28 30.3667 101.957 30.082 102.489 29.634C103.021 29.186 103.38 28.514 103.567 27.618H102.489C102.405 27.618 102.33 27.618 102.265 27.618C102.209 27.618 102.157 27.618 102.111 27.618H102.013H101.985V26.05ZM108.276 32V31.874V31.538C108.276 31.23 108.276 30.8893 108.276 30.516C108.276 30.1427 108.276 29.802 108.276 29.494C108.276 29.4287 108.276 29.368 108.276 29.312C108.276 29.256 108.276 29.2047 108.276 29.158V29.032V28.962V28.794C108.276 28.71 108.276 28.626 108.276 28.542C108.276 28.458 108.276 28.374 108.276 28.29C108.276 28.206 108.276 28.122 108.276 28.038C108.276 27.954 108.276 27.87 108.276 27.786V27.618V27.478C108.276 27.4127 108.276 27.338 108.276 27.254C108.267 27.0487 108.267 26.0687 108.276 24.314H108.262L109.13 22.984C109.233 23.04 109.317 23.0867 109.382 23.124C109.466 23.1707 109.574 23.2267 109.704 23.292C109.844 23.348 109.966 23.404 110.068 23.46C110.096 23.4787 110.12 23.4927 110.138 23.502C110.81 23.7913 111.431 24.0993 112 24.426C112.28 24.5847 112.518 24.748 112.714 24.916V24.258L113.596 22.984L114.38 23.656C114.362 24.1787 114.352 24.5893 114.352 24.888C114.352 24.9347 114.352 24.986 114.352 25.042C114.352 25.154 114.352 25.2613 114.352 25.364C114.352 25.4573 114.352 25.5507 114.352 25.644V25.84V25.91V26.008C114.352 26.0547 114.352 26.1013 114.352 26.148C114.352 26.1947 114.352 26.2413 114.352 26.288C114.352 26.4093 114.352 26.54 114.352 26.68C114.352 26.8107 114.352 26.9553 114.352 27.114C114.352 27.2633 114.352 27.408 114.352 27.548C114.352 27.688 114.352 27.814 114.352 27.926C114.352 27.9727 114.352 28.0193 114.352 28.066C114.352 28.1127 114.352 28.1593 114.352 28.206V28.374V28.556C114.352 28.6493 114.352 28.7473 114.352 28.85C114.352 28.9433 114.352 29.0367 114.352 29.13C114.352 29.214 114.352 29.3073 114.352 29.41C114.352 29.5033 114.352 29.5967 114.352 29.69V29.872V30.026C114.352 30.0913 114.352 30.1707 114.352 30.264C114.352 30.4787 114.352 30.7167 114.352 30.978C114.362 31.23 114.366 31.4587 114.366 31.664C114.366 31.7573 114.366 31.8367 114.366 31.902V31.986L112.7 32C112.7 30.796 112.7 29.592 112.7 28.388L112.686 28.234C112.64 27.842 112.542 27.4687 112.392 27.114C112.243 26.7593 112.056 26.4747 111.832 26.26C111.478 25.924 110.96 25.6207 110.278 25.35C110.269 25.3407 110.138 25.2893 109.886 25.196L109.9 27.548V27.604C109.9 28.7333 109.9 29.3633 109.9 29.494C109.9 29.7087 109.9 30.0493 109.9 30.516V32H108.276ZM119.4 22.984V23.11V23.446V24.482V25.518V25.854V25.98V26.05V26.218V26.722V27.24V27.408V27.548C119.4 27.6133 119.4 27.688 119.4 27.772C119.41 28.6213 119.414 30.04 119.414 32.028L118.672 31.37L117.776 30.656L117.762 27.478V27.408C117.762 26.2787 117.762 25.6487 117.762 25.518V24.482C117.772 24.398 117.772 24.314 117.762 24.23C117.762 24.146 117.762 24.062 117.762 23.978C117.762 23.894 117.753 23.8147 117.734 23.74C117.725 23.656 117.711 23.5813 117.692 23.516C117.674 23.4413 117.641 23.376 117.594 23.32C117.548 23.2547 117.492 23.1987 117.426 23.152C117.37 23.1053 117.296 23.068 117.202 23.04C117.109 23.0027 117.006 22.984 116.894 22.984H117.762H119.4ZM122.489 32V31.874V31.538C122.489 31.23 122.489 30.8893 122.489 30.516C122.489 30.1427 122.489 29.802 122.489 29.494C122.489 29.4287 122.489 29.368 122.489 29.312C122.489 29.256 122.489 29.2047 122.489 29.158V29.032V28.962V28.794C122.489 28.71 122.489 28.626 122.489 28.542C122.489 28.458 122.489 28.374 122.489 28.29C122.489 28.206 122.489 28.122 122.489 28.038C122.489 27.954 122.489 27.87 122.489 27.786V27.618V27.478C122.489 27.4127 122.489 27.338 122.489 27.254C122.48 27.0487 122.48 26.0687 122.489 24.314H122.475L123.343 22.984C123.446 23.04 123.53 23.0867 123.595 23.124C123.679 23.1707 123.787 23.2267 123.917 23.292C124.057 23.348 124.179 23.404 124.281 23.46C124.309 23.4787 124.333 23.4927 124.351 23.502C125.023 23.7913 125.644 24.0993 126.213 24.426C126.493 24.5847 126.731 24.748 126.927 24.916V24.258L127.809 22.984L128.593 23.656C128.575 24.1787 128.565 24.5893 128.565 24.888C128.565 24.9347 128.565 24.986 128.565 25.042C128.565 25.154 128.565 25.2613 128.565 25.364C128.565 25.4573 128.565 25.5507 128.565 25.644V25.84V25.91V26.008C128.565 26.0547 128.565 26.1013 128.565 26.148C128.565 26.1947 128.565 26.2413 128.565 26.288C128.565 26.4093 128.565 26.54 128.565 26.68C128.565 26.8107 128.565 26.9553 128.565 27.114C128.565 27.2633 128.565 27.408 128.565 27.548C128.565 27.688 128.565 27.814 128.565 27.926C128.565 27.9727 128.565 28.0193 128.565 28.066C128.565 28.1127 128.565 28.1593 128.565 28.206V28.374V28.556C128.565 28.6493 128.565 28.7473 128.565 28.85C128.565 28.9433 128.565 29.0367 128.565 29.13C128.565 29.214 128.565 29.3073 128.565 29.41C128.565 29.5033 128.565 29.5967 128.565 29.69V29.872V30.026C128.565 30.0913 128.565 30.1707 128.565 30.264C128.565 30.4787 128.565 30.7167 128.565 30.978C128.575 31.23 128.579 31.4587 128.579 31.664C128.579 31.7573 128.579 31.8367 128.579 31.902V31.986L126.913 32C126.913 30.796 126.913 29.592 126.913 28.388L126.899 28.234C126.853 27.842 126.755 27.4687 126.605 27.114C126.456 26.7593 126.269 26.4747 126.045 26.26C125.691 25.924 125.173 25.6207 124.491 25.35C124.482 25.3407 124.351 25.2893 124.099 25.196L124.113 27.548V27.604C124.113 28.7333 124.113 29.3633 124.113 29.494C124.113 29.7087 124.113 30.0493 124.113 30.516V32H122.489ZM139.446 22.97L139.502 26.624C139.54 27.0253 139.633 27.4033 139.782 27.758C139.941 28.1127 140.132 28.3973 140.356 28.612C140.711 28.9573 141.229 29.2653 141.91 29.536C141.938 29.5453 141.999 29.5733 142.092 29.62C142.092 29.5267 142.092 29.4473 142.092 29.382C142.092 29.3447 142.092 29.312 142.092 29.284C142.092 29.2467 142.092 29.214 142.092 29.186V29.102C142.092 29.0927 142.097 29.06 142.106 29.004C142.106 28.92 142.106 28.8267 142.106 28.724C142.106 28.472 142.106 28.1967 142.106 27.898C142.106 27.59 142.111 27.31 142.12 27.058C142.12 26.9553 142.12 26.8667 142.12 26.792V26.624V26.428C142.12 26.344 142.12 26.2553 142.12 26.162C142.12 26.0687 142.12 25.9707 142.12 25.868C142.12 25.6533 142.12 25.462 142.12 25.294V25.112V24.958C142.12 24.9207 142.12 24.8833 142.12 24.846C142.12 24.8087 142.12 24.7667 142.12 24.72C142.12 24.6173 142.12 24.5053 142.12 24.384C142.12 24.2627 142.12 24.1367 142.12 24.006C142.12 23.8753 142.12 23.7493 142.12 23.628C142.12 23.5067 142.12 23.3947 142.12 23.292V23.054V22.97H143.8L143.772 26.61L143.8 26.764C143.838 27.1653 143.931 27.5433 144.08 27.898C144.239 28.2527 144.43 28.5373 144.654 28.752C145.009 29.0973 145.527 29.41 146.208 29.69C146.218 29.69 146.348 29.7413 146.6 29.844C146.6 29.0507 146.6 28.262 146.6 27.478V27.408C146.61 26.2787 146.614 25.644 146.614 25.504V24.482L146.628 22.984H148.252C148.252 23.0027 148.252 23.0447 148.252 23.11C148.252 23.2033 148.252 23.32 148.252 23.46C148.252 23.768 148.252 24.1087 148.252 24.482C148.252 24.8553 148.252 25.2007 148.252 25.518C148.252 25.6487 148.252 25.7607 148.252 25.854L148.238 25.98V26.05C148.238 26.0967 148.238 26.1527 148.238 26.218C148.238 26.3767 148.238 26.5493 148.238 26.736C148.238 26.8293 148.238 26.918 148.238 27.002C148.238 27.086 148.238 27.1653 148.238 27.24V27.422V27.562C148.238 27.59 148.238 27.6227 148.238 27.66C148.238 27.6973 148.238 27.7393 148.238 27.786C148.238 27.9913 148.234 28.976 148.224 30.74L148.238 30.754L147.356 32.07C147.254 32.0233 147.165 31.9813 147.09 31.944C147.016 31.8973 146.908 31.8413 146.768 31.776C146.638 31.7107 146.516 31.65 146.404 31.594C146.386 31.5753 146.362 31.5613 146.334 31.552C145.662 31.2533 145.037 30.9407 144.458 30.614C144.178 30.4553 143.945 30.292 143.758 30.124C143.749 30.3387 143.744 30.558 143.744 30.782H143.758L143.366 31.314C143.348 31.3513 143.324 31.3887 143.296 31.426L142.848 32.056L141.098 30.964C140.66 30.74 140.347 30.5767 140.16 30.474C139.759 30.2407 139.428 29.9793 139.166 29.69C138.812 29.298 138.508 28.7987 138.256 28.192C138.004 27.576 137.864 26.9273 137.836 26.246C137.836 26.1993 137.836 26.1573 137.836 26.12C137.827 26.0733 137.822 26.0313 137.822 25.994V25.896V25.868V25.812C137.822 25.7747 137.822 25.7327 137.822 25.686C137.822 25.5647 137.822 25.434 137.822 25.294C137.832 25.154 137.836 25.0233 137.836 24.902V24.776V24.692V24.594C137.836 24.5567 137.836 24.5193 137.836 24.482C137.836 24.4353 137.836 24.384 137.836 24.328V24.062V23.978V23.894V23.796C137.836 23.74 137.836 23.684 137.836 23.628C137.836 23.572 137.836 23.516 137.836 23.46C137.836 23.3947 137.836 23.334 137.836 23.278C137.836 23.222 137.836 23.166 137.836 23.11L137.822 23.012V22.97H139.446ZM153.281 22.984V23.11V23.446V24.482V25.518V25.854V25.98V26.05V26.218V26.722V27.24V27.408V27.548C153.281 27.6133 153.281 27.688 153.281 27.772C153.29 28.6213 153.295 30.04 153.295 32.028L152.553 31.37L151.657 30.656L151.643 27.478V27.408C151.643 26.2787 151.643 25.6487 151.643 25.518V24.482C151.652 24.398 151.652 24.314 151.643 24.23C151.643 24.146 151.643 24.062 151.643 23.978C151.643 23.894 151.634 23.8147 151.615 23.74C151.606 23.656 151.592 23.5813 151.573 23.516C151.554 23.4413 151.522 23.376 151.475 23.32C151.428 23.2547 151.372 23.1987 151.307 23.152C151.251 23.1053 151.176 23.068 151.083 23.04C150.99 23.0027 150.887 22.984 150.775 22.984H151.643H153.281ZM156.034 22.956H156.132H156.384H157.308C157.766 22.956 158.232 22.956 158.708 22.956C159.194 22.956 159.651 22.956 160.08 22.956C160.528 22.956 160.99 22.956 161.466 22.956C161.942 22.956 162.409 22.956 162.866 22.956H163.79H164.042H164.14V24.454H164.042H163.79H162.866C162.624 24.454 161.966 24.454 160.892 24.454C160.892 24.7527 160.892 24.9813 160.892 25.14C160.902 25.9893 160.906 26.918 160.906 27.926C160.906 28.934 160.906 29.858 160.906 30.698C160.906 31.062 160.911 31.37 160.92 31.622C160.92 31.6593 160.92 31.6967 160.92 31.734C160.92 31.762 160.92 31.7853 160.92 31.804C160.92 31.8227 160.92 31.846 160.92 31.874V31.958L159.296 31.972V31.874C159.296 31.846 159.296 31.8227 159.296 31.804C159.296 31.7853 159.296 31.762 159.296 31.734C159.296 31.6967 159.296 31.6593 159.296 31.622C159.287 31.37 159.282 31.0667 159.282 30.712C159.282 29.8627 159.282 28.934 159.282 27.926C159.282 26.918 159.278 25.994 159.268 25.154C159.268 24.818 159.268 24.5847 159.268 24.454C158.242 24.454 157.588 24.454 157.308 24.454H156.384H156.132H156.034V22.956ZM174.916 22.97V23.082V23.362C174.916 23.5207 174.916 23.6887 174.916 23.866C174.916 24.034 174.916 24.2113 174.916 24.398V27.506C174.916 27.9167 174.916 28.5467 174.916 29.396C174.916 30.2453 174.916 30.8287 174.916 31.146C174.916 31.454 174.916 31.72 174.916 31.944C174.86 32.1027 174.79 32.2567 174.706 32.406C174.622 32.5553 174.529 32.686 174.426 32.798C174.333 32.91 174.23 33.0173 174.118 33.12C174.016 33.2227 173.913 33.3113 173.81 33.386C173.717 33.4607 173.633 33.5213 173.558 33.568C173.484 33.624 173.423 33.666 173.376 33.694C173.33 33.722 173.306 33.7313 173.306 33.722C173.306 33.694 173.302 33.358 173.292 32.714C173.292 32.07 173.292 31.7153 173.292 31.65C173.292 31.37 173.292 31.0293 173.292 30.628C173.302 29.7227 173.306 28.962 173.306 28.346L169.162 27.898C169.172 29.8953 169.176 31.2627 169.176 32H167.482L167.51 24.496C167.52 24.412 167.52 24.328 167.51 24.244C167.51 24.16 167.51 24.076 167.51 23.992C167.51 23.908 167.501 23.8287 167.482 23.754C167.473 23.67 167.459 23.5907 167.44 23.516C167.422 23.4413 167.389 23.376 167.342 23.32C167.296 23.2547 167.24 23.1987 167.174 23.152C167.118 23.1053 167.044 23.068 166.95 23.04C166.857 23.012 166.754 22.9933 166.642 22.984H167.51H169.148V23.11V23.46V24.496V25.532V25.882V26.008V26.078V26.246V26.358L173.306 26.806C173.306 25.7887 173.306 24.9813 173.306 24.384C173.306 24.2067 173.306 24.0293 173.306 23.852C173.306 23.6747 173.306 23.5113 173.306 23.362V23.082V22.97H174.916ZM189.665 24.216C189.646 24.2253 189.627 24.2347 189.609 24.244C188.33 24.6733 187.462 25.1353 187.005 25.63C186.613 26.0593 186.37 26.61 186.277 27.282L189.637 26.89V26.876V26.862V26.834V26.82V26.806V26.778V26.764V26.75V26.736V26.708V26.694V26.68V26.666V26.638V26.624V26.61V26.596V26.582V26.554V26.54V26.526V26.512V26.498V26.47V26.456V26.442V26.428V26.414V26.4V26.386V26.358V26.344V26.33V26.316V26.302V26.288V26.274V26.26L189.651 26.246V26.232V26.204V26.19V26.176V26.162V26.148V26.134V26.12V26.106V26.092V26.078V26.064V26.05V26.036V26.022V26.008V25.994V25.98V25.966V25.952V25.938V25.924V25.91V24.37C189.66 24.3047 189.665 24.2533 189.665 24.216ZM184.597 31.986V31.944V31.818V31.37V30.012V28.654V28.206V28.08V28.052V28.024C184.606 27.156 184.676 26.4887 184.807 26.022C184.947 25.546 185.227 25.0747 185.647 24.608C186.001 24.2253 186.533 23.8473 187.243 23.474C187.523 23.3247 187.98 23.0913 188.615 22.774C189.249 22.4567 189.693 22.2467 189.945 22.144L189.777 22.97C190.281 22.97 190.785 22.97 191.289 22.97C191.289 22.9793 191.289 22.9887 191.289 22.998C191.289 23.026 191.289 23.054 191.289 23.082C191.289 23.1567 191.284 23.25 191.275 23.362C191.275 23.642 191.275 23.9827 191.275 24.384C191.265 25.3267 191.256 26.3627 191.247 27.492C191.237 28.612 191.233 29.6433 191.233 30.586C191.223 30.9873 191.219 31.328 191.219 31.608C191.219 31.72 191.219 31.8133 191.219 31.888C191.219 31.944 191.219 31.9813 191.219 32L189.595 31.986C189.595 31.9673 189.599 31.9347 189.609 31.888C189.609 31.804 189.609 31.706 189.609 31.594C189.609 31.314 189.609 30.9733 189.609 30.572C189.618 29.844 189.623 29.158 189.623 28.514L186.221 28.906V30.012V31.37V31.818V31.944V31.986H184.597ZM197.181 26.582C197.265 26.554 197.335 26.5213 197.391 26.484C197.465 26.428 197.661 26.2507 197.979 25.952C198.305 25.644 198.511 25.448 198.595 25.364C198.735 25.2053 198.87 25.042 199.001 24.874C199.122 24.7247 199.15 24.5427 199.085 24.328C198.655 24.328 198.413 24.328 198.357 24.328C197.75 24.3187 197.195 24.314 196.691 24.314C196.607 24.314 196.523 24.314 196.439 24.314C196.355 24.314 196.308 24.314 196.299 24.314V24.482V25.518V25.868V25.994V26.064V26.232V26.554C196.364 26.5633 196.429 26.568 196.495 26.568C196.681 26.568 196.854 26.5727 197.013 26.582H197.181ZM195.949 22.97H195.991H196.145C196.229 22.97 196.317 22.97 196.411 22.97C196.504 22.97 196.597 22.97 196.691 22.97C197.195 22.97 197.75 22.9747 198.357 22.984H200.009C200.111 22.984 200.209 22.984 200.303 22.984C200.396 22.984 200.48 22.984 200.555 22.984H200.709H200.765V24.328C200.765 24.664 200.737 24.93 200.681 25.126C200.625 25.322 200.485 25.5693 200.261 25.868C200.074 26.092 199.845 26.3393 199.575 26.61L198.483 27.562C198.445 27.5993 198.385 27.6507 198.301 27.716C198.226 27.772 198.077 27.8513 197.853 27.954C197.629 28.0567 197.414 28.108 197.209 28.108H197.195H197.139C197.092 28.108 197.036 28.108 196.971 28.108L196.453 28.094H196.439H196.425H196.411H196.397L196.369 28.08H196.355H196.341H196.327H196.313C196.322 30.32 196.327 31.6267 196.327 32L194.619 31.986L194.661 24.482C194.661 24.398 194.661 24.314 194.661 24.23C194.661 24.146 194.656 24.062 194.647 23.978C194.647 23.894 194.642 23.8147 194.633 23.74C194.623 23.656 194.605 23.5767 194.577 23.502C194.558 23.4273 194.525 23.362 194.479 23.306C194.432 23.2407 194.376 23.1847 194.311 23.138C194.255 23.0913 194.18 23.054 194.087 23.026C193.993 22.998 193.886 22.9793 193.765 22.97H194.661H195.949ZM206.673 26.582C206.757 26.554 206.827 26.5213 206.883 26.484C206.957 26.428 207.153 26.2507 207.471 25.952C207.797 25.644 208.003 25.448 208.087 25.364C208.227 25.2053 208.362 25.042 208.493 24.874C208.614 24.7247 208.642 24.5427 208.577 24.328C208.147 24.328 207.905 24.328 207.849 24.328C207.242 24.3187 206.687 24.314 206.183 24.314C206.099 24.314 206.015 24.314 205.931 24.314C205.847 24.314 205.8 24.314 205.791 24.314V24.482V25.518V25.868V25.994V26.064V26.232V26.554C205.856 26.5633 205.921 26.568 205.987 26.568C206.173 26.568 206.346 26.5727 206.505 26.582H206.673ZM205.441 22.97H205.483H205.637C205.721 22.97 205.809 22.97 205.903 22.97C205.996 22.97 206.089 22.97 206.183 22.97C206.687 22.97 207.242 22.9747 207.849 22.984H209.501C209.603 22.984 209.701 22.984 209.795 22.984C209.888 22.984 209.972 22.984 210.047 22.984H210.201H210.257V24.328C210.257 24.664 210.229 24.93 210.173 25.126C210.117 25.322 209.977 25.5693 209.753 25.868C209.566 26.092 209.337 26.3393 209.067 26.61L207.975 27.562C207.937 27.5993 207.877 27.6507 207.793 27.716C207.718 27.772 207.569 27.8513 207.345 27.954C207.121 28.0567 206.906 28.108 206.701 28.108H206.687H206.631C206.584 28.108 206.528 28.108 206.463 28.108L205.945 28.094H205.931H205.917H205.903H205.889L205.861 28.08H205.847H205.833H205.819H205.805C205.814 30.32 205.819 31.6267 205.819 32L204.111 31.986L204.153 24.482C204.153 24.398 204.153 24.314 204.153 24.23C204.153 24.146 204.148 24.062 204.139 23.978C204.139 23.894 204.134 23.8147 204.125 23.74C204.115 23.656 204.097 23.5767 204.069 23.502C204.05 23.4273 204.017 23.362 203.971 23.306C203.924 23.2407 203.868 23.1847 203.803 23.138C203.747 23.0913 203.672 23.054 203.579 23.026C203.485 22.998 203.378 22.9793 203.257 22.97H204.153H205.441ZM215.367 22.984V23.25V23.922V25.98V28.052V28.724V28.99V29.116V29.452V30.376C215.554 30.376 215.838 30.376 216.221 30.376C216.678 30.3853 217.098 30.39 217.481 30.39C217.556 30.39 217.626 30.39 217.691 30.39C217.766 30.39 217.836 30.39 217.901 30.39H218.013H218.055V31.986H218.013H217.901C217.836 31.986 217.766 31.986 217.691 31.986C217.626 31.986 217.556 31.986 217.481 31.986H216.221H216.193H216.179H216.151H216.123H216.109H216.081H216.067H216.039H216.025H216.011H215.983H215.969H215.955H215.927H215.913H215.899H215.885H215.857H215.843H215.829H215.815H215.801H215.787H215.773H215.759H215.745H215.731H215.717H215.703H215.689H215.675H215.661H215.647H215.633H215.619H215.605H215.591H215.577H215.563H215.549H215.535H215.521H215.507H215.493H215.479H215.465H215.451H215.437H215.423H215.409H215.395H215.381H215.367H215.353H215.339H215.325H215.311H215.297H215.283H215.269H215.255H215.241H215.227H215.213H215.199H215.185H215.171H215.157H215.143H215.129H215.115H215.101H215.087H215.073H215.059H215.045H215.031H215.017H215.003H214.989H214.975H214.947C214.882 31.986 214.812 31.986 214.737 31.986C214.662 31.986 214.597 31.986 214.541 31.986H214.415H214.373H213.757V31.846C213.757 29.578 213.757 28.3133 213.757 28.052V25.98C213.757 25.868 213.757 25.686 213.757 25.434C213.757 25.1727 213.757 24.9767 213.757 24.846C213.757 24.706 213.748 24.5287 213.729 24.314C213.72 24.09 213.696 23.922 213.659 23.81C213.631 23.6887 213.584 23.5627 213.519 23.432C213.463 23.292 213.384 23.1893 213.281 23.124C213.188 23.0587 213.076 23.0167 212.945 22.998L213.757 22.984H215.367ZM222.492 22.984H222.548H222.688H223.192C223.444 22.984 223.701 22.984 223.962 22.984C224.233 22.984 224.485 22.984 224.718 22.984C224.97 22.984 225.227 22.984 225.488 22.984C225.749 22.984 226.006 22.984 226.258 22.984H226.762H226.902H226.958V24.314H226.902H226.762H226.258C226.006 24.314 225.749 24.314 225.488 24.314C225.227 24.314 224.97 24.314 224.718 24.314C224.485 24.314 224.233 24.314 223.962 24.314C223.701 24.314 223.444 24.314 223.192 24.314H223.094V24.468V25.49V25.826V25.952V26.022V26.134L225.852 26.162L225.838 27.772C224.951 27.7627 224.069 27.7533 223.192 27.744C223.304 28.5467 223.575 29.1627 224.004 29.592C224.443 30.0213 225.166 30.3247 226.174 30.502C226.211 30.502 226.253 30.502 226.3 30.502C226.477 30.502 226.641 30.502 226.79 30.502C226.827 30.502 226.855 30.502 226.874 30.502C226.902 30.502 226.925 30.502 226.944 30.502H227H227.014V31.986H226.986H226.944C226.925 31.986 226.902 31.986 226.874 31.986C226.846 31.986 226.818 31.986 226.79 31.986H226.3H226.272H226.258H226.244H226.216H226.202H226.188H226.16H226.146H226.132H226.118H226.104H226.09H226.076H226.062H226.048H226.034H226.02H226.006H225.992H225.978H225.964H225.95H225.936H225.922H225.908H225.894H225.88H225.866H225.852H225.838H225.824H225.81C225.782 31.986 225.754 31.986 225.726 31.986C225.698 31.986 225.675 31.986 225.656 31.986H225.614H225.6C225.227 31.9393 224.863 31.8553 224.508 31.734C224.163 31.6127 223.813 31.44 223.458 31.216C223.113 30.9827 222.805 30.712 222.534 30.404C222.273 30.096 222.044 29.7133 221.848 29.256C221.661 28.7987 221.545 28.2947 221.498 27.744C221.498 27.716 221.498 27.688 221.498 27.66C221.489 27.5667 221.484 27.4733 221.484 27.38C221.484 26.2507 221.484 25.6207 221.484 25.49V24.468C221.484 24.4587 221.484 24.3887 221.484 24.258C221.484 24.1273 221.479 24.0527 221.47 24.034C221.47 24.006 221.465 23.936 221.456 23.824C221.447 23.712 221.433 23.642 221.414 23.614C221.405 23.5767 221.386 23.516 221.358 23.432C221.33 23.348 221.293 23.292 221.246 23.264C221.199 23.2267 221.143 23.1847 221.078 23.138C221.022 23.0913 220.952 23.0587 220.868 23.04C220.784 23.012 220.691 22.998 220.588 22.998L221.484 22.984H222.492ZM238.222 22.984V23.11V23.446V24.482V25.518V25.854V25.98V26.05V26.218V26.722V27.24V27.408V27.548C238.222 27.6133 238.222 27.688 238.222 27.772C238.232 28.6213 238.236 30.04 238.236 32.028L237.494 31.37L236.598 30.656L236.584 27.478V27.408C236.584 26.2787 236.584 25.6487 236.584 25.518V24.482C236.594 24.398 236.594 24.314 236.584 24.23C236.584 24.146 236.584 24.062 236.584 23.978C236.584 23.894 236.575 23.8147 236.556 23.74C236.547 23.656 236.533 23.5813 236.514 23.516C236.496 23.4413 236.463 23.376 236.416 23.32C236.37 23.2547 236.314 23.1987 236.248 23.152C236.192 23.1053 236.118 23.068 236.024 23.04C235.931 23.0027 235.828 22.984 235.716 22.984H236.584H238.222ZM246.604 27.66C246.613 27.576 246.613 27.52 246.604 27.492C246.604 27.4547 246.604 27.2213 246.604 26.792C246.604 26.3067 246.599 25.574 246.59 24.594C246.207 24.594 245.689 24.594 245.036 24.594C244.345 24.594 243.78 24.594 243.342 24.594V25.98V28.052V28.724V28.99V29.116V29.452V30.488V30.586C244.49 30.446 245.358 30.0027 245.946 29.256C246.31 28.7893 246.52 28.3367 246.576 27.898C246.585 27.8047 246.594 27.7253 246.604 27.66ZM248.074 22.97V23.054C248.074 23.1007 248.074 23.152 248.074 23.208C248.074 23.3573 248.074 23.5347 248.074 23.74C248.074 24.2253 248.074 24.762 248.074 25.35C248.083 25.9287 248.088 26.4607 248.088 26.946C248.088 27.1513 248.088 27.3287 248.088 27.478V27.632V27.674C248.088 28.1313 248.008 28.584 247.85 29.032C247.7 29.4707 247.472 29.8953 247.164 30.306C246.856 30.7073 246.436 31.0527 245.904 31.342C245.381 31.6313 244.779 31.8273 244.098 31.93C243.892 31.9673 243.64 31.986 243.342 31.986H241.732V31.846C241.732 29.578 241.732 28.3133 241.732 28.052V25.98C241.732 25.868 241.732 25.686 241.732 25.434C241.732 25.1727 241.732 24.9767 241.732 24.846C241.732 24.706 241.722 24.5287 241.704 24.314C241.694 24.09 241.671 23.922 241.634 23.81C241.606 23.6887 241.559 23.5627 241.494 23.432C241.438 23.292 241.358 23.1893 241.256 23.124C241.162 23.0587 241.05 23.0167 240.92 22.998L241.732 22.984H243.342C243.659 22.984 244.224 22.984 245.036 22.984C245.745 22.9933 246.398 22.998 246.996 22.998C247.117 22.998 247.215 22.998 247.29 22.998C247.551 22.9887 247.812 22.9793 248.074 22.97Z" fill="white"/>
<path d="M65.1125 26.7084C65.1042 25.2031 65.7958 24.067 67.1958 23.2303C66.4125 22.127 65.2292 21.5199 63.6667 21.401C62.1875 21.2861 60.5708 22.25 59.9792 22.25C59.3542 22.25 57.9208 21.442 56.7958 21.442C54.4708 21.4789 52 23.2672 52 26.9053C52 27.9799 52.2 29.09 52.6 30.2357C53.1333 31.741 55.0583 35.4324 57.0667 35.3709C58.1167 35.3463 58.8583 34.6367 60.225 34.6367C61.55 34.6367 62.2375 35.3709 63.4083 35.3709C65.4333 35.3422 67.175 31.9871 67.6833 30.4777C64.9667 29.2186 65.1125 26.7863 65.1125 26.7084ZM62.7542 19.9736C63.8917 18.6447 63.7875 17.4348 63.7542 17C62.75 17.0574 61.5875 17.6727 60.925 18.4314C60.1958 19.2436 59.7667 20.2484 59.8583 21.3805C60.9458 21.4625 61.9375 20.9129 62.7542 19.9736Z" fill="white"/>
</svg>
