<svg width="326" height="60" viewBox="0 0 326 60" fill="none" xmlns="http://www.w3.org/2000/svg">
<rect x="6" y="5" width="320" height="55" fill="#661FA8"/>
<rect width="320" height="55" fill="#8A2BE2"/>
<path opacity="0.9" d="M125.84 31.516H125.924H126.12C126.223 31.516 126.33 31.516 126.442 31.516C126.554 31.516 126.657 31.516 126.75 31.516C126.853 31.516 126.951 31.516 127.044 31.516C127.147 31.516 127.235 31.516 127.31 31.516C128.215 31.4227 128.953 31.152 129.522 30.704C130.101 30.256 130.488 29.5607 130.684 28.618C130.46 28.618 129.951 28.618 129.158 28.618C128.365 28.618 127.641 28.618 126.988 28.618C126.839 28.618 126.703 28.618 126.582 28.618C126.461 28.618 126.358 28.618 126.274 28.618H126.078H126.008V27.162C126.008 27.0967 126.013 27.0453 126.022 27.008C126.097 26.4947 126.223 26.0653 126.4 25.72C126.587 25.3653 126.811 25.076 127.072 24.852C127.333 24.628 127.669 24.4553 128.08 24.334C128.491 24.2033 128.925 24.1193 129.382 24.082C129.849 24.0353 130.413 24.012 131.076 24.012L131.062 25.58C130.278 25.552 129.643 25.594 129.158 25.706C128.682 25.818 128.332 25.9813 128.108 26.196C127.893 26.4107 127.739 26.6953 127.646 27.05C127.767 27.0593 127.996 27.064 128.332 27.064C128.5 27.064 128.78 27.064 129.172 27.064C129.956 27.064 130.679 27.064 131.342 27.064C131.491 27.064 131.622 27.064 131.734 27.064C131.855 27.064 131.963 27.064 132.056 27.064H132.252H132.322L132.308 28.632C132.289 29.0053 132.229 29.3693 132.126 29.724C132.033 30.0787 131.883 30.4333 131.678 30.788C131.473 31.1427 131.225 31.4647 130.936 31.754C130.647 32.034 130.278 32.2813 129.83 32.496C129.382 32.7013 128.883 32.846 128.332 32.93C128.145 32.958 127.921 32.9767 127.66 32.986H127.576H127.38C127.277 32.986 127.17 32.986 127.058 32.986C126.946 32.986 126.843 32.986 126.75 32.986C126.657 32.986 126.554 32.986 126.442 32.986C126.33 32.986 126.223 32.986 126.12 32.986H125.924H125.84V31.516ZM140.868 25.216C140.849 25.2253 140.83 25.2347 140.812 25.244C139.533 25.6733 138.665 26.1353 138.208 26.63C137.816 27.0593 137.573 27.61 137.48 28.282L140.84 27.89V27.876V27.862V27.834V27.82V27.806V27.778V27.764V27.75V27.736V27.708V27.694V27.68V27.666V27.638V27.624V27.61V27.596V27.582V27.554V27.54V27.526V27.512V27.498V27.47V27.456V27.442V27.428V27.414V27.4V27.386V27.358V27.344V27.33V27.316V27.302V27.288V27.274V27.26L140.854 27.246V27.232V27.204V27.19V27.176V27.162V27.148V27.134V27.12V27.106V27.092V27.078V27.064V27.05V27.036V27.022V27.008V26.994V26.98V26.966V26.952V26.938V26.924V26.91V25.37C140.863 25.3047 140.868 25.2533 140.868 25.216ZM135.8 32.986V32.944V32.818V32.37V31.012V29.654V29.206V29.08V29.052V29.024C135.809 28.156 135.879 27.4887 136.01 27.022C136.15 26.546 136.43 26.0747 136.85 25.608C137.204 25.2253 137.736 24.8473 138.446 24.474C138.726 24.3247 139.183 24.0913 139.818 23.774C140.452 23.4567 140.896 23.2467 141.148 23.144L140.98 23.97C141.484 23.97 141.988 23.97 142.492 23.97C142.492 23.9793 142.492 23.9887 142.492 23.998C142.492 24.026 142.492 24.054 142.492 24.082C142.492 24.1567 142.487 24.25 142.478 24.362C142.478 24.642 142.478 24.9827 142.478 25.384C142.468 26.3267 142.459 27.3627 142.45 28.492C142.44 29.612 142.436 30.6433 142.436 31.586C142.426 31.9873 142.422 32.328 142.422 32.608C142.422 32.72 142.422 32.8133 142.422 32.888C142.422 32.944 142.422 32.9813 142.422 33L140.798 32.986C140.798 32.9673 140.802 32.9347 140.812 32.888C140.812 32.804 140.812 32.706 140.812 32.594C140.812 32.314 140.812 31.9733 140.812 31.572C140.821 30.844 140.826 30.158 140.826 29.514L137.424 29.906V31.012V32.37V32.818V32.944V32.986H135.8ZM152.318 23.998V24.054C152.318 24.0913 152.318 24.138 152.318 24.194C152.318 24.3433 152.318 24.5207 152.318 24.726C152.318 25.2207 152.318 25.762 152.318 26.35C152.327 26.9287 152.332 27.4607 152.332 27.946C152.332 28.1513 152.332 28.3287 152.332 28.478V28.632V28.674C152.332 29.1313 152.252 29.584 152.094 30.032C151.944 30.4707 151.716 30.8953 151.408 31.306C151.1 31.7073 150.68 32.0527 150.148 32.342C149.625 32.6313 149.023 32.8273 148.342 32.93C148.136 32.9673 147.884 32.986 147.586 32.986H145.976V32.846C145.976 30.578 145.976 29.3133 145.976 29.052V26.98C145.976 26.868 145.976 26.686 145.976 26.434C145.976 26.1727 145.976 25.9767 145.976 25.846C145.976 25.706 145.966 25.5287 145.948 25.314C145.938 25.09 145.915 24.922 145.878 24.81C145.85 24.6887 145.803 24.5627 145.738 24.432C145.682 24.292 145.602 24.1893 145.5 24.124C145.406 24.0587 145.294 24.0167 145.164 23.998L145.976 23.984H147.586V24.25V24.922V26.98V29.052V29.724V29.99V30.116V30.452V31.488V31.586C148.734 31.446 149.602 31.0027 150.19 30.256C150.554 29.7893 150.764 29.3367 150.82 28.898C150.829 28.8047 150.838 28.7253 150.848 28.66C150.857 28.576 150.857 28.52 150.848 28.492C150.848 28.4173 150.843 27.7033 150.834 26.35C150.834 24.9967 150.834 24.2827 150.834 24.208V24.054V24.012L152.318 23.998ZM156.761 23.984H156.817H156.957H157.461C157.713 23.984 157.97 23.984 158.231 23.984C158.502 23.984 158.754 23.984 158.987 23.984C159.239 23.984 159.496 23.984 159.757 23.984C160.019 23.984 160.275 23.984 160.527 23.984H161.031H161.171H161.227V25.314H161.171H161.031H160.527C160.275 25.314 160.019 25.314 159.757 25.314C159.496 25.314 159.239 25.314 158.987 25.314C158.754 25.314 158.502 25.314 158.231 25.314C157.97 25.314 157.713 25.314 157.461 25.314H157.363V25.468V26.49V26.826V26.952V27.022V27.134L160.121 27.162L160.107 28.772C159.221 28.7627 158.339 28.7533 157.461 28.744C157.573 29.5467 157.844 30.1627 158.273 30.592C158.712 31.0213 159.435 31.3247 160.443 31.502C160.481 31.502 160.523 31.502 160.569 31.502C160.747 31.502 160.91 31.502 161.059 31.502C161.097 31.502 161.125 31.502 161.143 31.502C161.171 31.502 161.195 31.502 161.213 31.502H161.269H161.283V32.986H161.255H161.213C161.195 32.986 161.171 32.986 161.143 32.986C161.115 32.986 161.087 32.986 161.059 32.986H160.569H160.541H160.527H160.513H160.485H160.471H160.457H160.429H160.415H160.401H160.387H160.373H160.359H160.345H160.331H160.317H160.303H160.289H160.275H160.261H160.247H160.233H160.219H160.205H160.191H160.177H160.163H160.149H160.135H160.121H160.107H160.093H160.079C160.051 32.986 160.023 32.986 159.995 32.986C159.967 32.986 159.944 32.986 159.925 32.986H159.883H159.869C159.496 32.9393 159.132 32.8553 158.777 32.734C158.432 32.6127 158.082 32.44 157.727 32.216C157.382 31.9827 157.074 31.712 156.803 31.404C156.542 31.096 156.313 30.7133 156.117 30.256C155.931 29.7987 155.814 29.2947 155.767 28.744C155.767 28.716 155.767 28.688 155.767 28.66C155.758 28.5667 155.753 28.4733 155.753 28.38C155.753 27.2507 155.753 26.6207 155.753 26.49V25.468C155.753 25.4587 155.753 25.3887 155.753 25.258C155.753 25.1273 155.749 25.0527 155.739 25.034C155.739 25.006 155.735 24.936 155.725 24.824C155.716 24.712 155.702 24.642 155.683 24.614C155.674 24.5767 155.655 24.516 155.627 24.432C155.599 24.348 155.562 24.292 155.515 24.264C155.469 24.2267 155.413 24.1847 155.347 24.138C155.291 24.0913 155.221 24.0587 155.137 24.04C155.053 24.012 154.96 23.998 154.857 23.998L155.753 23.984H156.761ZM172.492 23.984V24.11V24.446V25.482V26.518V26.854V26.98V27.05V27.218V27.722V28.24V28.408V28.548C172.492 28.6133 172.492 28.688 172.492 28.772C172.501 29.6213 172.506 31.04 172.506 33.028L171.764 32.37L170.868 31.656L170.854 28.478V28.408C170.854 27.2787 170.854 26.6487 170.854 26.518V25.482C170.863 25.398 170.863 25.314 170.854 25.23C170.854 25.146 170.854 25.062 170.854 24.978C170.854 24.894 170.845 24.8147 170.826 24.74C170.817 24.656 170.803 24.5813 170.784 24.516C170.765 24.4413 170.733 24.376 170.686 24.32C170.639 24.2547 170.583 24.1987 170.518 24.152C170.462 24.1053 170.387 24.068 170.294 24.04C170.201 24.0027 170.098 23.984 169.986 23.984H170.854H172.492ZM175.581 33V32.874V32.538C175.581 32.23 175.581 31.8893 175.581 31.516C175.581 31.1427 175.581 30.802 175.581 30.494C175.581 30.4287 175.581 30.368 175.581 30.312C175.581 30.256 175.581 30.2047 175.581 30.158V30.032V29.962V29.794C175.581 29.71 175.581 29.626 175.581 29.542C175.581 29.458 175.581 29.374 175.581 29.29C175.581 29.206 175.581 29.122 175.581 29.038C175.581 28.954 175.581 28.87 175.581 28.786V28.618V28.478C175.581 28.4127 175.581 28.338 175.581 28.254C175.572 28.0487 175.572 27.0687 175.581 25.314H175.567L176.435 23.984C176.538 24.04 176.622 24.0867 176.687 24.124C176.771 24.1707 176.878 24.2267 177.009 24.292C177.149 24.348 177.27 24.404 177.373 24.46C177.401 24.4787 177.424 24.4927 177.443 24.502C178.115 24.7913 178.736 25.0993 179.305 25.426C179.585 25.5847 179.823 25.748 180.019 25.916V25.258L180.901 23.984L181.685 24.656C181.666 25.1787 181.657 25.5893 181.657 25.888C181.657 25.9347 181.657 25.986 181.657 26.042C181.657 26.154 181.657 26.2613 181.657 26.364C181.657 26.4573 181.657 26.5507 181.657 26.644V26.84V26.91V27.008C181.657 27.0547 181.657 27.1013 181.657 27.148C181.657 27.1947 181.657 27.2413 181.657 27.288C181.657 27.4093 181.657 27.54 181.657 27.68C181.657 27.8107 181.657 27.9553 181.657 28.114C181.657 28.2633 181.657 28.408 181.657 28.548C181.657 28.688 181.657 28.814 181.657 28.926C181.657 28.9727 181.657 29.0193 181.657 29.066C181.657 29.1127 181.657 29.1593 181.657 29.206V29.374V29.556C181.657 29.6493 181.657 29.7473 181.657 29.85C181.657 29.9433 181.657 30.0367 181.657 30.13C181.657 30.214 181.657 30.3073 181.657 30.41C181.657 30.5033 181.657 30.5967 181.657 30.69V30.872V31.026C181.657 31.0913 181.657 31.1707 181.657 31.264C181.657 31.4787 181.657 31.7167 181.657 31.978C181.666 32.23 181.671 32.4587 181.671 32.664C181.671 32.7573 181.671 32.8367 181.671 32.902V32.986L180.005 33C180.005 31.796 180.005 30.592 180.005 29.388L179.991 29.234C179.944 28.842 179.846 28.4687 179.697 28.114C179.548 27.7593 179.361 27.4747 179.137 27.26C178.782 26.924 178.264 26.6207 177.583 26.35C177.574 26.3407 177.443 26.2893 177.191 26.196L177.205 28.548V28.604C177.205 29.7333 177.205 30.3633 177.205 30.494C177.205 30.7087 177.205 31.0493 177.205 31.516V33H175.581ZM186.173 23.984H186.313H186.789H186.817H188.343C188.595 23.984 188.852 23.984 189.113 23.984C189.374 23.984 189.631 23.984 189.883 23.984H190.387H190.527H190.583V25.314H190.527H190.387H189.883C189.631 25.314 189.374 25.314 189.113 25.314C188.852 25.314 188.595 25.314 188.343 25.314C188.11 25.314 187.858 25.314 187.587 25.314C187.326 25.314 187.069 25.314 186.817 25.314H186.789V26.98V27.134C187.685 27.1433 188.581 27.1527 189.477 27.162L189.463 28.772C188.567 28.7627 187.676 28.7533 186.789 28.744V29.052V29.724V29.99V30.116V30.452V31.488C186.789 31.8613 186.789 32.3607 186.789 32.986H185.179V32.846C185.179 30.578 185.179 29.3133 185.179 29.052V26.98C185.179 26.868 185.179 26.686 185.179 26.434C185.179 26.1727 185.179 25.9767 185.179 25.846C185.179 25.706 185.17 25.5287 185.151 25.314C185.142 25.09 185.118 24.922 185.081 24.81C185.053 24.6887 185.006 24.5627 184.941 24.432C184.885 24.292 184.806 24.1893 184.703 24.124C184.61 24.0587 184.498 24.0167 184.367 23.998L185.179 23.984H186.117H186.173ZM196.071 32.888C195.212 32.7013 194.508 32.2393 193.957 31.502C193.518 30.9233 193.224 30.2373 193.075 29.444L192.599 29.836C192.636 29.5187 192.716 29.0193 192.837 28.338C192.968 27.6473 193.061 27.218 193.117 27.05C193.126 27.022 193.136 26.9987 193.145 26.98C193.285 26.4013 193.509 25.8927 193.817 25.454C194.349 24.6793 195.054 24.2033 195.931 24.026L195.581 23.592C195.824 23.648 196.104 23.7133 196.421 23.788C196.748 23.8533 197 23.9093 197.177 23.956C197.354 23.9933 197.522 24.0353 197.681 24.082C198.456 24.306 199.095 24.7587 199.599 25.44C200.047 26.0467 200.341 26.7653 200.481 27.596L200.915 27.26C200.878 27.5587 200.794 28.0393 200.663 28.702C200.532 29.3647 200.439 29.7987 200.383 30.004C200.234 30.564 200.014 31.0587 199.725 31.488C199.669 31.5627 199.613 31.6373 199.557 31.712C199.548 31.712 199.543 31.7167 199.543 31.726C199.03 32.3607 198.39 32.7573 197.625 32.916L197.919 33.238C197.704 33.2007 197.382 33.1447 196.953 33.07C196.533 32.9953 196.239 32.9347 196.071 32.888ZM196.659 25.44C195.978 25.4493 195.441 25.7387 195.049 26.308C194.648 26.8867 194.456 27.6007 194.475 28.45C194.494 29.318 194.718 30.0367 195.147 30.606C195.586 31.1847 196.174 31.474 196.911 31.474C197.574 31.474 198.096 31.194 198.479 30.634C198.88 30.0647 199.072 29.3507 199.053 28.492C199.044 27.6333 198.824 26.9147 198.395 26.336C197.984 25.7853 197.438 25.4867 196.757 25.44C196.729 25.44 196.696 25.44 196.659 25.44Z" fill="white"/>
</svg>
